<svg height="512" viewBox="0 0 512 512" width="512" xmlns="http://www.w3.org/2000/svg"><g id="flat"><g fill="#6cbae5"><circle cx="414.813" cy="352" r="48"/><path d="m406.813 240h16v40h-16z"/><path d="m406.813 424h16v16h-16z"/><path d="m414.813 488h-94.813v-16h86.813v-16h16v24a8 8 0 0 1 -8 8z"/></g><path d="m354.954 65.11a7.965 7.965 0 0 1 -4.794-1.6l-39.347-29.51-39.347 29.51a8 8 0 0 1 -9.6-12.8l44.148-33.11a8 8 0 0 1 9.6 0l44.146 33.11a8 8 0 0 1 -4.806 14.4z" fill="#d18d28"/><path d="m142.813 48h336v200h-336z" fill="#ea9d2d"/><path d="m328 290v166h-272v-166a10 10 0 0 1 10-10h252a10 10 0 0 1 10 10z" fill="#37c9c3"/><path d="m320 290v166h-264v-166a10 10 0 0 1 10-10h244a10 10 0 0 1 10 10z" fill="#41dfd0"/><path d="m32 456h318.813a0 0 0 0 1 0 0v10a22 22 0 0 1 -22 22h-274.813a22 22 0 0 1 -22-22v-10a0 0 0 0 1 0 0z" fill="#cbcbcb"/><path d="m126.813 312h169.187v112h-169.187z" fill="#ea9d2d"/><path d="m206.813 344v48l40-24z" fill="#f55648"/><path d="m246.81 176a8 8 0 0 1 -6.071-13.207l48-56a8 8 0 0 1 12.149 10.414l-48 56a7.987 7.987 0 0 1 -6.078 2.793z" fill="#a83b32"/><path d="m142.813 216h336v32h-336z" fill="#8f563b"/><path d="m142.813 216h336v8h-336z" fill="#744630"/><path d="m414.813 296a56 56 0 1 0 56 56 56.064 56.064 0 0 0 -56-56zm39.2 48h-13.313a71.852 71.852 0 0 0 -5.331-20.364l-3.314-7.726a40.147 40.147 0 0 1 21.954 28.09zm-39.2 43.689-5.845-13.627a55.78 55.78 0 0 1 -3.922-14.062h19.536a55.753 55.753 0 0 1 -3.921 14.056zm-9.768-43.689a55.792 55.792 0 0 1 3.92-14.056l5.848-13.633 5.845 13.627a55.783 55.783 0 0 1 3.923 14.062zm-7.47-28.089-3.317 7.732a71.806 71.806 0 0 0 -5.327 20.357h-13.313a40.142 40.142 0 0 1 21.957-28.089zm-21.957 44.089h13.313a71.85 71.85 0 0 0 5.33 20.364l3.314 7.725a40.142 40.142 0 0 1 -21.957-28.089zm56.434 28.09 3.316-7.733a71.808 71.808 0 0 0 5.332-20.357h13.313a40.148 40.148 0 0 1 -21.961 28.09z" fill="#428dc5"/><path d="m246.813 160-64 24a40.157 40.157 0 0 0 -15.636-12.5 32 32 0 1 0 -32.725 0 40 40 0 0 0 -23.64 36.5v72h80v-64l64-24z" fill="#428dc5"/><path d="m174.813 384-22.474 11.237a32.136 32.136 0 0 0 -10.848-8.255 24 24 0 1 0 -28.4.7 31.988 31.988 0 0 0 -17.091 28.318v40h64v-36.593l22.813-11.407z" fill="#428dc5"/></g></svg>